<svg class="computer-logo" viewBox="0 0 190 200" xmlns="http://www.w3.org/2000/svg" xml:space="preserve" fill-rule="evenodd" clip-rule="evenodd" stroke-linejoin="round" stroke-miterlimit="2"><g transform="matrix(2.37603 0 0 1 -1740.032 70.381)"><g id="laptop"><path class="outer-case" d="M812.194 1.214c.002-7.532-.783-11.098-3.164-14.365l-40.048-54.938c-1.747-2.395-3.164.151-3.164 5.684v80.194c0 5.532 1.417 11.97 3.164 14.365l40.048 54.938c1.746 2.395 3.164-.152 3.164-5.684V1.214Z" fill="var(--paper)" fill-rule="nonzero"/><path class="outer-case"d="M767.918-69.548c-.734-1.007-1.846-1.116-2.481-.244l-1.152 1.58c-.358.491-.313 1.351.1 1.92l45.327 62.178c1.63-2.236 1.425-6.146-.457-8.728l-41.337-56.706Z" fill="var(--paper)" fill-rule="nonzero"/><path class="outer-case" d="M811.833-.725c0-4.783-1.225-6.985-2.735-4.913-.137.188-.249.694-.249 1.129v92.653c0 1.305.335 1.905.746 1.34l1.432-1.964c.445-.61.806-2.25.806-3.658V-.725Z" fill="var(--paper)" fill-rule="nonzero"/><path class="inner-case" d="M810.67.026c.001-4.709-.405-7.275-2.12-9.629l-42.362-58.111c-1.672-2.294-3.03.145-3.03 5.442V14.52c0 5.298 1.358 11.461 3.03 13.755L807.64 85.14c1.672 2.294 3.03-.145 3.03-5.442V.026Z" fill="var(--gray)" fill-rule="nonzero"/><path class="screen" d="M809.39-1.906c0-1.462-.374-3.163-.836-3.796L765.16-65.23c-.462-.633-.836.04-.836 1.502v82.987c0 1.462.374 3.163.836 3.796l43.394 59.529c.462.633.836-.04.836-1.502V-1.906Z" fill="var(--ink)" fill-rule="nonzero"/><path class="outer-case" d="M763.92 21.04c-1.065-1.462-2.68-1.62-3.603-.356l-25.75 35.324c-3.321 4.557-2.904 12.53.932 17.792l38.928 53.4c2.13 2.924 5.36 3.242 7.205.71l28.425-38.993c.923-1.266.807-3.48-.259-4.942L763.92 21.039Z" fill="var(--paper)" fill-rule="nonzero"/><path class="inner-case" d="M765.624 18.607c-1.046-1.435-2.632-1.592-3.538-.348L735.484 54.75c-2.538 3.481-2.219 9.571.711 13.59l39.004 53.506c2.093 2.871 5.264 3.184 7.076.697l27.916-38.295c.906-1.243.793-3.418-.254-4.854l-44.313-60.788Zm26.127-47.36-8.952-12.28v1.695c0 1.403.36 3.035.802 3.643l7.347 10.078c.443.608.803-.038.803-1.441v-1.695Z" fill="var(--gray)" fill-rule="nonzero"/><path class="inner-case" d="m759.615 97.834-8.952-12.28v3.326c0 2.754.706 5.958 1.575 7.15l5.802 7.959c.87 1.193 1.575-.075 1.575-2.829v-3.326Zm4.476-68.374-2.984 4.094 2.984 4.093 2.984-4.093-2.984-4.094Z" fill="var(--gray)" fill-rule="nonzero"/><path class="inner-case" d="m761.107 33.554-2.984 4.093 2.984 4.093 2.984-4.093-2.984-4.093Z" fill="var(--gray)" fill-rule="nonzero"/><path class="inner-case" d="m761.107 41.74-2.984 4.094 2.984 4.093 2.984-4.093-2.984-4.094Z" fill="var(--gray)" fill-rule="nonzero"/><path class="inner-case" d="m761.107 49.927-2.984 4.093 2.984 4.093 2.984-4.093-2.984-4.093Z" fill="var(--gray)" fill-rule="nonzero"/><path class="inner-case" d="m761.107 58.113-2.984 4.094 2.984 4.093 2.984-4.093-2.984-4.094ZM767.075 33.554l-2.984 4.093 2.984 4.093 2.983-4.093-2.983-4.093Z" fill="var(--gray)" fill-rule="nonzero"/><path class="inner-case" d="m764.09 37.647-2.983 4.093 2.984 4.094 2.984-4.094-2.984-4.093ZM764.09 45.834l-2.983 4.093 2.984 4.093 2.984-4.093-2.984-4.093Z" fill="var(--gray)" fill-rule="nonzero"/><path class="inner-case" d="m764.09 54.02-2.983 4.093 2.984 4.094 2.984-4.094-2.984-4.093Z" fill="var(--gray)" fill-rule="nonzero"/><path class="inner-case" d="m764.09 62.207-2.983 4.093 2.984 4.093 2.984-4.093-2.984-4.093ZM770.058 37.647l-2.983 4.093 2.983 4.094 2.984-4.094-2.984-4.093ZM767.075 41.74l-2.984 4.094 2.984 4.093 2.983-4.093-2.983-4.094Z" fill="var(--gray)" fill-rule="nonzero"/><path class="inner-case" d="m767.075 49.927-2.984 4.093 2.984 4.093 2.983-4.093-2.983-4.093Z" fill="var(--gray)" fill-rule="nonzero"/><path class="inner-case" d="m767.075 58.113-2.984 4.094 2.984 4.093 2.983-4.093-2.983-4.094ZM767.075 66.3l-2.984 4.093 2.984 4.094 2.983-4.094-2.983-4.093ZM773.042 41.74l-2.984 4.094 2.984 4.093 2.984-4.093-2.984-4.094Z" fill="var(--gray)" fill-rule="nonzero"/><path class="inner-case" d="m770.058 45.834-2.983 4.093 2.983 4.093 2.984-4.093-2.984-4.093Z" fill="var(--gray)" fill-rule="nonzero"/><path class="inner-case" d="m770.058 54.02-2.983 4.093 2.983 4.094 2.984-4.094-2.984-4.093Z" fill="var(--gray)" fill-rule="nonzero"/><path class="inner-case" d="m770.058 62.207-2.983 4.093 2.983 4.093 2.984-4.093-2.984-4.093ZM770.058 70.393l-2.983 4.094 2.983 4.093 2.984-4.093-2.984-4.094ZM776.026 45.834l-2.984 4.093 2.984 4.093 2.984-4.093-2.984-4.093Z" fill="var(--gray)" fill-rule="nonzero"/><path class="inner-case" d="m773.042 49.927-2.984 4.093 2.984 4.093 2.984-4.093-2.984-4.093Z" fill="var(--gray)" fill-rule="nonzero"/><path class="inner-case" d="m773.042 58.113-2.984 4.094 2.984 4.093 2.984-4.093-2.984-4.094ZM773.042 66.3l-2.984 4.093 2.984 4.094 2.984-4.094-2.984-4.093ZM773.042 74.487l-2.984 4.093 2.984 4.093 2.984-4.093-2.984-4.093ZM779.01 49.927l-2.984 4.093 2.984 4.093 2.984-4.093-2.984-4.093Z" fill="var(--gray)" fill-rule="nonzero"/><path class="inner-case" d="m776.026 54.02-2.984 4.093 2.984 4.094 2.984-4.094-2.984-4.093Z" fill="var(--gray)" fill-rule="nonzero"/><path class="inner-case" d="m776.026 62.207-2.984 4.093 2.984 4.093 2.984-4.093-2.984-4.093ZM776.026 70.393l-2.984 4.094 2.984 4.093 2.984-4.093-2.984-4.094ZM776.026 78.58l-2.984 4.093 2.984 4.094 2.984-4.094-2.984-4.093ZM781.994 54.02l-2.984 4.093 2.984 4.094 2.984-4.094-2.984-4.093Z" fill="var(--gray)" fill-rule="nonzero"/><path class="inner-case" d="m779.01 58.113-2.984 4.094 2.984 4.093 2.984-4.093-2.984-4.094ZM779.01 66.3l-2.984 4.093 2.984 4.094 2.984-4.094-2.984-4.093ZM779.01 74.487l-2.984 4.093 2.984 4.093 2.984-4.093-2.984-4.093Z" fill="var(--gray)" fill-rule="nonzero"/><path class="inner-case" d="m784.978 58.113-2.984 4.094 2.984 4.093 2.984-4.093-2.984-4.094Z" fill="var(--gray)" fill-rule="nonzero"/><path class="inner-case" d="M781.994 62.207 779.01 66.3l2.984 4.093 2.984-4.093-2.984-4.093ZM781.994 70.393l-2.984 4.094 2.984 4.093 2.984-4.093-2.984-4.094ZM781.994 78.58l-2.984 4.093 2.984 4.094 2.984-4.094-2.984-4.093Z" fill="var(--gray)" fill-rule="nonzero"/><path class="inner-case" d="m787.962 62.207-2.984 4.093 2.984 4.093 2.984-4.093-2.984-4.093Z" fill="var(--gray)" fill-rule="nonzero"/><path class="inner-case"d="m784.978 66.3-2.984 4.093 2.984 4.094 2.984-4.094-2.984-4.093ZM784.978 74.487l-2.984 4.093 2.984 4.093 2.984-4.093-2.984-4.093ZM790.946 66.3l-2.984 4.093 2.984 4.094 2.984-4.094-2.984-4.093Z" fill="var(--gray)" fill-rule="nonzero"/><path class="inner-case" d="m787.962 70.393-2.984 4.094 2.984 4.093 2.984-4.093-2.984-4.094ZM787.962 78.58l-2.984 4.093 2.984 4.094 2.984-4.094-2.984-4.093Z" fill="var(--gray)" fill-rule="nonzero"/><path class="inner-case" d="m793.93 70.393-2.984 4.094 2.984 4.093 2.984-4.093-2.984-4.094Z" fill="var(--gray)" fill-rule="nonzero"/><path class="inner-case" d="m790.946 74.487-2.984 4.093 2.984 4.093 2.984-4.093-2.984-4.093Z" fill="var(--gray)" fill-rule="nonzero"/><path class="inner-case" d="m796.914 74.487-2.984 4.093 2.984 4.093 2.984-4.093-2.984-4.093ZM799.898 78.58l-2.984 4.093 2.984 4.094 2.983-4.094-2.983-4.093Z" fill="var(--gray)" fill-rule="nonzero"/><path class="inner-case" d="m793.93 78.58-2.984 4.093 2.984 4.094 2.984-4.094-2.984-4.093Z" fill="var(--gray)" fill-rule="nonzero"/><path class="outer-case" d="m764.09 29.955-2.622 3.599 2.623 3.598 2.623-3.598-2.623-3.599ZM761.107 34.048l-2.623 3.599 2.623 3.598 2.623-3.598-2.623-3.599ZM761.107 42.235l-2.623 3.599 2.623 3.598 2.623-3.598-2.623-3.6ZM761.107 50.422l-2.623 3.598 2.623 3.599 2.623-3.599-2.623-3.598ZM761.107 58.608l-2.623 3.599 2.623 3.598 2.623-3.598-2.623-3.599ZM767.075 34.048l-2.624 3.599 2.624 3.598 2.623-3.598-2.623-3.599ZM764.09 38.142l-2.622 3.598 2.623 3.598 2.623-3.598-2.623-3.598ZM764.09 46.328l-2.622 3.599 2.623 3.598 2.623-3.598-2.623-3.599ZM764.09 54.515l-2.622 3.598 2.623 3.599 2.623-3.599-2.623-3.598ZM764.09 62.701l-2.622 3.599 2.623 3.599 2.623-3.6-2.623-3.598ZM770.058 38.142l-2.623 3.598 2.623 3.598 2.624-3.598-2.624-3.598ZM767.075 42.235l-2.624 3.599 2.624 3.598 2.623-3.598-2.623-3.6ZM767.075 50.422l-2.624 3.598 2.624 3.599 2.623-3.599-2.623-3.598ZM767.075 58.608l-2.624 3.599 2.624 3.598 2.623-3.598-2.623-3.599ZM767.075 66.795l-2.624 3.598 2.624 3.599 2.623-3.599-2.623-3.598ZM773.042 42.235l-2.623 3.599 2.623 3.598 2.624-3.598-2.624-3.6ZM770.058 46.328l-2.623 3.599 2.623 3.598 2.624-3.598-2.624-3.599ZM770.058 54.515l-2.623 3.598 2.623 3.599 2.624-3.599-2.624-3.598ZM770.058 62.701l-2.623 3.599 2.623 3.599 2.624-3.6-2.624-3.598ZM770.058 70.888l-2.623 3.599 2.623 3.598 2.624-3.598-2.624-3.599ZM776.026 46.328l-2.623 3.599 2.623 3.598 2.624-3.598-2.624-3.599ZM773.042 50.422l-2.623 3.598 2.623 3.599 2.624-3.599-2.624-3.598ZM773.042 58.608l-2.623 3.599 2.623 3.598 2.624-3.598-2.624-3.599ZM773.042 66.795l-2.623 3.598 2.623 3.599 2.624-3.599-2.624-3.598ZM773.042 74.982l-2.623 3.598 2.623 3.598 2.624-3.598-2.624-3.598ZM779.01 50.422l-2.623 3.598 2.623 3.599 2.624-3.599-2.624-3.598ZM776.026 54.515l-2.623 3.598 2.623 3.599 2.624-3.599-2.624-3.598ZM776.026 62.701l-2.623 3.599 2.623 3.599 2.624-3.6-2.624-3.598ZM776.026 70.888l-2.623 3.599 2.623 3.598 2.624-3.598-2.624-3.599ZM776.026 79.075l-2.623 3.598 2.623 3.599 2.624-3.599-2.624-3.598ZM781.994 54.515l-2.623 3.598 2.623 3.599 2.623-3.599-2.623-3.598ZM779.01 58.608l-2.623 3.599 2.623 3.598 2.624-3.598-2.624-3.599ZM779.01 66.795l-2.623 3.598 2.623 3.599 2.624-3.599-2.624-3.598ZM779.01 74.982l-2.623 3.598 2.623 3.598 2.624-3.598-2.624-3.598ZM784.978 58.608l-2.623 3.599 2.623 3.598 2.623-3.598-2.623-3.599ZM781.994 62.701l-2.623 3.599 2.623 3.599 2.623-3.6-2.623-3.598ZM781.994 70.888l-2.623 3.599 2.623 3.598 2.623-3.598-2.623-3.599ZM781.994 79.075l-2.623 3.598 2.623 3.599 2.623-3.599-2.623-3.598ZM787.962 62.701l-2.623 3.599 2.623 3.599 2.623-3.6-2.623-3.598ZM784.978 66.795l-2.623 3.598 2.623 3.599 2.623-3.599-2.623-3.598ZM784.978 74.982l-2.623 3.598 2.623 3.598 2.623-3.598-2.623-3.598ZM790.946 66.795l-2.623 3.598 2.623 3.599 2.623-3.599-2.623-3.598ZM787.962 70.888l-2.623 3.599 2.623 3.598 2.623-3.598-2.623-3.599ZM787.962 79.075l-2.623 3.598 2.623 3.599 2.623-3.599-2.623-3.598ZM793.93 70.888l-2.623 3.599 2.623 3.598 2.623-3.598-2.623-3.599ZM790.946 74.982l-2.623 3.598 2.623 3.598 2.623-3.598-2.623-3.598ZM796.914 74.982l-2.623 3.598 2.623 3.598 2.623-3.598-2.623-3.598ZM799.898 79.075l-2.624 3.598 2.624 3.599 2.623-3.599-2.623-3.598ZM793.93 79.075l-2.623 3.598 2.623 3.599 2.623-3.599-2.623-3.598ZM757.811 69.965c-.659-.903-1.657-1.002-2.227-.219l-9.302 12.761 17.903 24.56 9.302-12.76c.571-.783.5-2.152-.16-3.056l-15.516-21.286Z" fill="var(--paper)" fill-rule="nonzero"/><text class="letter" x="607" y="162.611" font-family="&quot;Roboto-Bold&quot;,&quot;Roboto&quot;" font-weight="700" font-size="51.482" fill="var(--accent)" transform="matrix(.43338 .5945 0 1.37296 514.035 -563.713)">M</text></g></g></svg>